<?xml version="1.0" encoding="UTF-8"?>
<svg id="Calque_1" data-name="Calque 1" xmlns="http://www.w3.org/2000/svg" width="46.08mm" height="35.84mm" viewBox="0 0 130.62 101.59">
  <defs>
    <style>
      .cls-1 {
        fill: #00678a;
      }

      .cls-1, .cls-2, .cls-3, .cls-4 {
        stroke-width: 0px;
      }

      .cls-2 {
        fill: #e1ebc2;
      }

      .cls-3 {
        fill: #4f932d;
      }

      .cls-4 {
        fill: none;
      }
    </style>
  </defs>
  <path class="cls-2" d="m0,56.23c4.84-.45,7.4-4.77,10.4-7.42,2.8-3.04,5.88-6.3,9.45-10.66,1.95-2.35,5.85-7.09,10.57-12.92,2.33-3.05,5-5.76,7.52-9.67.46-1.57,3.74-3.79,1.69-3.38-.17-.38.83,2.62,3.48,4.76,2.82,1.46,5.89,1.36,8.37-.68,2.14-2.11,2.71-4.2,3.58-5.7,2.42-3.35.41-3.09,2.52-.05,1.95,5.2,3.37,9.33,3.59,9.34.21-.13,1.58,4.36,7.87,7.77,3.2,1.48,7.41,1.63,11.34.66,3.74-.66,9.01-3.69,8.61-1.86,2.6,6.41,3.72,16.79,7.7,23.39,3.65,6.88,7.66,11.92,9.91,14.15,8.24,8.33,14.82,11.17,24.01,13.04-8.26-4.63-13.19-8.46-20.79-16.18-2.07-2.07-5.76-6.74-9.15-13.12-3.91-6.49-4.12-14.43-7.9-23.72-.66-1.23-2.43-2.78-4.28-2.7-1.68-.02-2.9.5-3.83.86-1.79.7-3.6,1.33-5.28,1.68-3.39.82-6.38.61-8.55-.37-4.25-2.24-5.75-6.02-5.75-5.74-.11.16-1.18-3.03-3.43-9.03-.94-1.37-.69-3.42-4.48-5.02-4.63.22-4.85,3.19-6.07,4.72-1.83,4.2-3.1,5.78-5.7,4.63-.89-.27-.52-2.37-4.27-5.15-4.16-.28-3.92,1.71-5.01,2.37-.78.96-1.36,1.89-1.95,2.79-2.01,3.19-5.03,6.39-7.24,9.27-4.68,5.8-8.58,10.54-10.52,12.92-7.67,8.13-9.53,15.81-16.44,21Z"/>
  <g>
    <path class="cls-1" d="m37.2,63.72c0,.56-.03,1.03-.08,1.41-.05.38-.14.7-.26.97-.12.27-.26.46-.43.59-.17.12-.37.19-.61.19H13.36c-.6,0-1.17-.22-1.71-.65-.54-.43-.81-1.2-.81-2.29V13.57c0-.22.05-.42.16-.59.11-.17.29-.3.55-.4.26-.1.61-.18,1.06-.25.45-.07.98-.1,1.61-.1s1.2.04,1.63.1c.43.07.78.15,1.04.25.26.1.44.23.55.4.1.17.15.37.15.59v47.04h18.23c.24,0,.44.06.61.19s.31.31.43.55c.12.24.2.56.26.95.05.39.08.87.08,1.43Z"/>
    <path class="cls-1" d="m49.32,65.78c0,.22-.06.42-.16.59-.1.17-.29.3-.55.4-.26.1-.61.18-1.04.25-.43.07-.98.11-1.63.11s-1.17-.04-1.61-.11c-.44-.07-.8-.15-1.06-.25-.26-.1-.44-.23-.55-.4-.1-.17-.16-.37-.16-.59V20.47c0-.23.06-.42.18-.59.12-.17.31-.3.59-.4.27-.1.63-.18,1.06-.25.43-.07.95-.1,1.55-.1.65,0,1.2.04,1.63.1.43.07.78.16,1.04.25.26.1.45.23.55.4.1.17.16.37.16.59v45.3Z"/>
  </g>
  <g>
    <path class="cls-3" d="m91.44,77.54c-1.77,0-2.66-.59-2.66-1.76v-12.3c0-2.44-.29-3.96-.88-4.57-.53-.51-1.67-.77-3.41-.77s-2.97.26-3.5.77c-.59.66-.89,2.18-.89,4.57v12.43c0,1.15-.87,1.72-2.61,1.72s-2.61-.57-2.61-1.72v-33.77c0-1.21.87-1.81,2.61-1.81s2.61.6,2.61,1.81v14.56c1.15-.27,2.61-.41,4.38-.41,2.98,0,5.21.42,6.69,1.26,1.92,1.09,2.88,3.06,2.88,5.92v12.3c0,1.18-.87,1.76-2.61,1.76Z"/>
    <path class="cls-3" d="m114.51,100.33c-1.48.84-3.7,1.27-6.69,1.27s-5.31-.42-6.73-1.27c-1.92-1.06-2.88-3.01-2.88-5.88,0-1.17.87-1.76,2.61-1.76s2.61.59,2.61,1.76v.05c0,2.05.22,3.42.66,4.11.56.78,1.8,1.18,3.72,1.18.95,0,1.73-.09,2.37-.27.64-.18,1.09-.48,1.35-.9.24-.33.39-.84.47-1.54.07-.69.11-1.57.11-2.62v-17.14c-1.03.21-2.46.32-4.29.32-3.16,0-5.4-.39-6.73-1.18-1.92-1.08-2.88-3.04-2.88-5.88v-12.43c0-1.18.87-1.76,2.61-1.76s2.61.59,2.61,1.76v12.43c0,2.05.22,3.42.66,4.11.29.42.75.73,1.37.93.62.2,1.4.29,2.35.29,1.92,0,3.14-.4,3.67-1.22.41-.66.62-2.02.62-4.07v-12.39c0-1.21.89-1.81,2.66-1.81s2.61.6,2.61,1.81v36.21c0,2.77-.96,4.73-2.88,5.88Z"/>
  </g>
  <g>
    <path class="cls-4" d="m94.53,8.76c-3.21-2.69-7.48-4.56-12.03-5.29-2.44-.39-4.48-.47-6.29-.27-1.08.12-1.92.28-2.55.47-.41.13-.8.26-.91.31h-.02c-.33.16-.53.26-.62.32-2.97,1.85-4.35,5.16-5.13,7.5-1.01,3.06-1.62,6.52-1.86,10.6-.16,2.74-.15,5.62.04,8.54.02.34.05.67.08.95.06.61.11,1.18.11,1.75v2.96l.96-.05c.46-.03.93-.05,1.39-.08,7.53-.52,18.02-2.33,25.18-8,3.34-2.64,5.47-6.01,6-9.49.56-3.7-1.03-7.43-4.36-10.22Z"/>
    <path class="cls-3" d="m105.27,15.05c-.6-4.78-4.28-8.09-7.26-10.02-3.85-2.49-8.98-4.25-14.07-4.82-1.27-.14-2.58-.22-3.87-.22-4.28,0-8.22.79-11.4,2.28-3.12,1.47-5.55,4.1-7.2,7.83-2.87,6.47-3,13.87-2.74,20.24.03.67.06,1.34.09,2l.16,4.17-1.03-.08c-7.37-.61-13.53-2.61-18.31-5.94-3.94-2.74-6.48-6.38-7.16-10.23-.65-3.72.72-8.27,3.41-11.32.89-1.01,2.06-2.2,2.76-2.85.45-.43,1.53-1.27,1.83-1.42l.1-.05c.15-.05.3-.1.48-.17l.58-.16.32.19c.19.11.35.26.51.45.17-1.83,1.68-3.26,3.52-3.26.05,0,.09,0,.14,0-.81-.28-1.74-.42-2.78-.42-2.17,0-4.21.39-5.33,1.02-2.84,1.61-3.77,2.22-5.74,4.05-3.34,3.12-5.39,6.58-6.09,10.29-.83,4.41.65,8.97,4.18,12.83,7.45,8.16,20.58,9.89,27.75,10.2l.88.04v37.19l.34.28c.25.21.75.45,1.73.45,1.53,0,3.92-.64,4.24-1.8l.04-.12v-36.07l.86-.05c8.57-.52,16.79-2.39,23.8-5.41,8.1-3.49,16.36-10.35,15.26-19.13Zm-6.38,3.93c-.53,3.48-2.66,6.85-6,9.49-7.17,5.67-17.65,7.48-25.18,8-.46.03-.93.06-1.39.08l-.96.05s-.17-5.32-.19-5.66c-.19-2.93-.2-5.8-.04-8.54.24-4.08.85-7.54,1.86-10.6.78-2.34,2.15-5.65,5.13-7.5.09-.06.29-.17.62-.31h.02c.12-.05.51-.19.91-.31.63-.2,1.47-.35,2.55-.47,1.8-.2,3.84-.12,6.29.27,4.55.73,8.82,2.6,12.03,5.29,3.33,2.79,4.92,6.52,4.36,10.22Z"/>
    <path class="cls-1" d="m46.14,1.7s-.09,0-.14,0c-1.84,0-3.34,1.43-3.52,3.26-.01.12-.02.24-.02.35,0,1.99,1.58,3.61,3.54,3.61s3.54-1.62,3.54-3.61-1.51-3.53-3.39-3.6Z"/>
  </g>
</svg>